<?xml version="1.0" encoding="iso-8859-1"?>
<!-- Generator: Adobe Illustrator 27.2.0, SVG Export Plug-In . SVG Version: 6.00 Build 0)  -->
<svg version="1.1" id="Capa_1" xmlns="http://www.w3.org/2000/svg" xmlns:xlink="http://www.w3.org/1999/xlink" x="0px" y="0px"
	 viewBox="0 0 514 514" style="enable-background:new 0 0 514 514;" xml:space="preserve">
<g>
	<g>
		<path style="fill:#33CCCC;" d="M312.225,175.714H268V131.49c0-6.075-4.925-11-11-11s-11,4.925-11,11v44.225h-44.225
			c-6.075,0-11,4.925-11,11s4.925,11,11,11H246v44.225c0,6.075,4.925,11,11,11s11-4.925,11-11v-44.225h44.225
			c6.075,0,11-4.925,11-11S318.3,175.714,312.225,175.714z"/>
		<g id="XMLID_544_">
			<path d="M257,323.225c-75.271,0-136.51-61.238-136.51-136.51c0-75.272,61.238-136.51,136.51-136.51s136.51,61.238,136.51,136.51
				C393.51,261.986,332.272,323.225,257,323.225z M257,72.204c-63.141,0-114.51,51.369-114.51,114.51
				c0,63.141,51.369,114.51,114.51,114.51s114.51-51.369,114.51-114.51C371.51,123.573,320.141,72.204,257,72.204z"/>
		</g>
		<g id="XMLID_541_">
			<path style="fill:#33CCCC;" d="M257,514c-39.963,0-77.682-4.876-106.209-13.729c-41.642-12.924-50.383-30.22-50.383-42.454
				c0-11.283,7.504-27.397,43.254-40.088c23.95-8.502,56.636-14.05,92.035-15.622l0.977,21.979
				c-33.281,1.478-63.7,6.583-85.652,14.376c-22.633,8.035-28.613,16.174-28.613,19.356c0,4.265,9.295,13.495,34.903,21.443
				C183.784,487.475,219.188,492,257,492s73.216-4.525,99.689-12.741c25.608-7.948,34.903-17.178,34.903-21.443
				c0-3.182-5.98-11.321-28.613-19.356c-21.952-7.793-52.371-12.898-85.652-14.376l0.977-21.979
				c35.399,1.572,68.085,7.12,92.035,15.622c35.75,12.691,43.254,28.805,43.254,40.088c0,12.234-8.741,29.53-50.383,42.454
				C334.682,509.124,296.963,514,257,514z"/>
		</g>
		<g id="XMLID_543_">
			<path d="M257,458.775c-3.864,0-7.444-2.027-9.433-5.34l-56.446-94.078C119.278,332.098,71.29,262.823,71.29,185.71
				C71.29,83.309,154.6,0,257,0s185.71,83.309,185.71,185.71c0,77.113-47.988,146.388-119.831,173.647l-56.446,94.078
				C264.444,456.748,260.864,458.775,257,458.775z M257,22C166.73,22,93.29,95.44,93.29,185.71
				c0,69.156,43.782,131.162,108.946,154.293c2.405,0.854,4.439,2.518,5.753,4.707L257,426.395l49.011-81.685
				c1.313-2.188,3.348-3.853,5.753-4.707c65.164-23.131,108.946-85.137,108.946-154.293C420.71,95.44,347.27,22,257,22z"/>
		</g>
	</g>
</g>
<g>
</g>
<g>
</g>
<g>
</g>
<g>
</g>
<g>
</g>
<g>
</g>
<g>
</g>
<g>
</g>
<g>
</g>
<g>
</g>
<g>
</g>
<g>
</g>
<g>
</g>
<g>
</g>
<g>
</g>
</svg>
