<?xml version="1.0" encoding="iso-8859-1"?>
<!-- Generator: Adobe Illustrator 27.2.0, SVG Export Plug-In . SVG Version: 6.00 Build 0)  -->
<svg version="1.1" id="Capa_1" xmlns="http://www.w3.org/2000/svg" xmlns:xlink="http://www.w3.org/1999/xlink" x="0px" y="0px"
	 viewBox="0 0 511.921 511.921" style="enable-background:new 0 0 511.921 511.921;" xml:space="preserve">
<g>
	<g>
		<path style="fill:#33CCCC;" d="M399.899,231.836c-19.25,0-35.658-4.661-51.753-9.233c-26.012-7.389-50.584-14.369-87.992-0.295
			c-5.665,2.131-11.981-0.733-14.112-6.396c-2.131-5.663,0.732-11.981,6.396-14.112c44.164-16.616,74.729-7.935,101.695-0.275
			c22.703,6.449,44.284,12.582,74.101,4.316l-27.537-52.705c-1.587-3.04-1.66-6.648-0.196-9.749l23.155-49.06
			c-30.267,5.986-53.189-0.526-75.51-6.866c-26.01-7.388-50.577-14.364-87.97-0.303c-5.665,2.131-11.982-0.735-14.111-6.398
			c-2.13-5.664,0.734-11.981,6.398-14.111c44.149-16.604,74.708-7.924,101.67-0.266c25.589,7.268,49.76,14.134,85.902,0.434
			c4.175-1.583,8.896-0.472,11.929,2.808c3.032,3.28,3.769,8.073,1.862,12.112l-31.186,66.077l30.989,59.315
			c1.45,2.776,1.643,6.041,0.529,8.968c-1.114,2.928-3.427,5.238-6.356,6.349C429.648,229.33,414.01,231.836,399.899,231.836z"/>
	</g>
	<path d="M413.198,405.3c-39.62-9.004-91.211-14.214-146.283-14.825V69.99c14.427-4.641,24.899-18.186,24.899-34.136
		C291.815,16.084,275.731,0,255.96,0c-19.77,0-35.854,16.084-35.854,35.854c0,15.95,10.471,29.495,24.899,34.136v320.485
		c-55.072,0.611-106.663,5.82-146.283,14.825c-49.005,11.138-72.827,26.141-72.827,45.867c0,19.726,23.822,34.73,72.827,45.867
		c42.237,9.599,98.078,14.886,157.238,14.886s115.001-5.287,157.238-14.886c49.005-11.137,72.827-26.141,72.827-45.867
		C486.025,431.441,462.203,416.438,413.198,405.3z M255.96,21.911c7.688,0,13.943,6.255,13.943,13.943
		c0,7.688-6.255,13.943-13.943,13.943c-7.689,0-13.943-6.255-13.943-13.943C242.017,28.166,248.272,21.911,255.96,21.911z
		 M408.343,475.669c-40.691,9.248-94.808,14.341-152.383,14.341s-111.692-5.093-152.383-14.341
		c-45.847-10.42-55.771-22.155-55.771-24.501c0-2.346,9.925-14.082,55.771-24.501c38.1-8.659,87.97-13.675,141.427-14.279v27.824
		h-13.943c-6.051,0-10.956,4.905-10.956,10.956c0,6.051,4.905,10.955,10.956,10.955h49.798c6.051,0,10.956-4.905,10.956-10.955
		c0-6.051-4.905-10.956-10.956-10.956h-13.943v-27.824c53.458,0.604,103.328,5.62,141.427,14.279
		c45.847,10.42,55.771,22.155,55.771,24.501C464.115,453.514,454.19,465.249,408.343,475.669z"/>
</g>
<g>
</g>
<g>
</g>
<g>
</g>
<g>
</g>
<g>
</g>
<g>
</g>
<g>
</g>
<g>
</g>
<g>
</g>
<g>
</g>
<g>
</g>
<g>
</g>
<g>
</g>
<g>
</g>
<g>
</g>
</svg>
