<?xml version="1.0" encoding="iso-8859-1"?>
<!-- Generator: Adobe Illustrator 27.2.0, SVG Export Plug-In . SVG Version: 6.00 Build 0)  -->
<svg version="1.1" id="Capa_1" xmlns="http://www.w3.org/2000/svg" xmlns:xlink="http://www.w3.org/1999/xlink" x="0px" y="0px"
	 viewBox="0 0 514 514" style="enable-background:new 0 0 514 514;" xml:space="preserve">
<g>
	<g>
		<path style="fill:#33CCCC;" d="M317.245,150.612c-6.075,0-11,4.925-11,11v69.327h-18.164v-29.164c0-6.075-4.925-11-11-11h-40.163
			c-6.075,0-11,4.925-11,11v29.164h-18.164v-69.327c0-6.075-4.925-11-11-11s-11,4.925-11,11v80.327c0,6.075,4.925,11,11,11h120.49
			c6.075,0,11-4.925,11-11v-80.327C328.245,155.537,323.32,150.612,317.245,150.612z M247.919,212.775h18.163v18.164h-18.163
			V212.775z"/>
		<g id="XMLID_598_">
			<path d="M257,323.225c-75.272,0-136.51-61.238-136.51-136.51c0-75.272,61.238-136.51,136.51-136.51s136.51,61.238,136.51,136.51
				C393.51,261.986,332.272,323.225,257,323.225z M257,72.204c-63.141,0-114.51,51.369-114.51,114.51
				c0,63.141,51.369,114.51,114.51,114.51s114.51-51.369,114.51-114.51C371.51,123.573,320.141,72.204,257,72.204z"/>
		</g>
		<g id="XMLID_596_">
			<path style="fill:#33CCCC;" d="M257,514c-39.963,0-77.682-4.876-106.209-13.729c-41.642-12.924-50.383-30.22-50.383-42.454
				c0-11.283,7.504-27.397,43.253-40.088c23.951-8.502,56.636-14.05,92.036-15.622l0.975,21.979
				c-33.281,1.478-63.7,6.583-85.651,14.376c-22.633,8.035-28.614,16.174-28.614,19.356c0,4.265,9.295,13.495,34.904,21.443
				C183.785,487.475,219.188,492,257,492s73.215-4.525,99.688-12.741c25.608-7.948,34.904-17.178,34.904-21.443
				c0-3.182-5.98-11.321-28.614-19.356c-21.952-7.793-52.37-12.898-85.651-14.376l0.975-21.979
				c35.4,1.572,68.086,7.12,92.036,15.622c35.749,12.691,43.253,28.805,43.253,40.088c0,12.234-8.741,29.53-50.383,42.454
				C334.682,509.124,296.963,514,257,514z"/>
		</g>
		<g id="XMLID_597_">
			<path d="M257,458.775c-3.864,0-7.444-2.027-9.433-5.34l-56.446-94.078C119.278,332.098,71.29,262.823,71.29,185.71
				C71.29,83.309,154.599,0,257,0s185.71,83.309,185.71,185.71c0,77.113-47.988,146.388-119.831,173.647l-56.446,94.078
				C264.444,456.748,260.864,458.775,257,458.775z M257,22C166.73,22,93.29,95.44,93.29,185.71
				c0,69.157,43.782,131.163,108.946,154.293c2.406,0.854,4.439,2.518,5.753,4.707L257,426.395l49.011-81.685
				c1.313-2.188,3.347-3.853,5.753-4.707c65.164-23.131,108.946-85.137,108.946-154.293C420.71,95.44,347.27,22,257,22z"/>
		</g>
		<path d="M343.157,152.284l-14.912-9.32v-21.515c0-6.075-4.925-11-11-11c-6.075,0-11,4.925-11,11v7.765L262.83,102.08
			c-3.567-2.229-8.093-2.229-11.66,0l-80.327,50.204c-4.161,2.601-6.097,7.644-4.744,12.361c1.353,4.717,5.667,7.967,10.574,7.967
			h160.653c4.907,0,9.221-3.251,10.574-7.967C349.253,159.928,347.318,154.885,343.157,152.284z M215.028,150.612L257,124.38
			l41.972,26.232H215.028z"/>
	</g>
</g>
<g>
</g>
<g>
</g>
<g>
</g>
<g>
</g>
<g>
</g>
<g>
</g>
<g>
</g>
<g>
</g>
<g>
</g>
<g>
</g>
<g>
</g>
<g>
</g>
<g>
</g>
<g>
</g>
<g>
</g>
</svg>
